<?xml version="1.0" encoding="UTF-8"?>
<svg id="Layer_2" data-name="Layer 2" xmlns="http://www.w3.org/2000/svg" viewBox="0 0 346.16 113.39">
  <defs>
    <style>
      .cls-1 {
        fill: #fff;
      }

      .cls-1, .cls-2, .cls-3 {
        stroke-width: 0px;
      }

      .cls-2 {
        fill: #4068b2;
      }

      .cls-3 {
        fill: #fbac18;
      }
    </style>
  </defs>
  <g id="Layer_1-2" data-name="Layer 1">
    <path class="cls-2" d="m173.08,0h-56.69v113.39h56.69c31.31,0,56.69-25.38,56.69-56.69S204.39,0,173.08,0Z"/>
    <g>
      <path class="cls-3" d="m194.34,56.69h-7.09v-14.17c0-7.83-6.35-14.17-14.17-14.17h0s0,0,0,0c0-7.83-6.35-14.17-14.17-14.17v14.17c0-7.83-6.35-14.17-14.17-14.17h0v70.87h28.35c13.23,0,24.34-9.06,27.47-21.32-3.5-.43-6.21-3.41-6.21-7.03Z"/>
      <path class="cls-1" d="m200.55,63.72c.57-2.25.88-4.6.88-7.03h0s-7.09,0-7.09,0c0,3.62,2.71,6.59,6.21,7.03Z"/>
    </g>
    <circle class="cls-2" cx="56.69" cy="56.69" r="56.69"/>
    <circle class="cls-3" cx="56.69" cy="56.69" r="28.35"/>
    <path class="cls-2" d="m289.46,0h-56.69v113.39h56.69c31.31,0,56.69-25.38,56.69-56.69S320.78,0,289.46,0Zm0,85.04h-28.35V28.35h28.35c15.63,0,28.35,12.72,28.35,28.35s-12.72,28.35-28.35,28.35Z"/>
    <polygon class="cls-3" points="289.46 99.21 261.12 85.04 261.12 28.35 289.46 42.52 289.46 99.21"/>
    <circle class="cls-1" cx="159.69" cy="47.08" r="5.7"/>
    <circle class="cls-1" cx="176.12" cy="47.08" r="5.7"/>
    <circle class="cls-2" cx="177.95" cy="47.08" r="3.87"/>
    <circle class="cls-2" cx="161.51" cy="47.08" r="3.87"/>
  </g>
</svg>