<?xml version="1.0" encoding="UTF-8"?>
<svg id="Layer_2" data-name="Layer 2" xmlns="http://www.w3.org/2000/svg" viewBox="0 0 45.69 53.3">
  <defs>
    <style>
      .cls-1 {
        fill: #faa61e;
        stroke-width: 0px;
      }
    </style>
  </defs>
  <g id="Layer_1-2" data-name="Layer 1">
    <path class="cls-1" d="m22.84,7.61h0V0h0c-4.21,0-7.61,3.41-7.61,7.61h0s-7.61,0-7.61,0V0C3.41,0,0,3.41,0,7.61H0s0,0,0,0v45.69h22.84c12.62,0,22.84-10.23,22.84-22.84h0c0-12.62-10.23-22.84-22.84-22.84Zm0,38.07H7.61l14.42-4.61v-21.23l-14.42-4.61h15.23c8.4,0,15.23,6.83,15.23,15.23s-6.83,15.23-15.23,15.23Zm-2.7-14.82v-.81c0-.41.45-.65.79-.42.14.09.23.25.23.42v.81c0,.17-.08.33-.23.42-.34.23-.79-.02-.79-.42Z"/>
  </g>
</svg>