<?xml version="1.0" encoding="UTF-8"?>
<svg id="Layer_2" data-name="Layer 2" xmlns="http://www.w3.org/2000/svg" viewBox="0 0 346.16 113.39">
  <defs>
    <style>
      .cls-1 {
        fill: #fff;
        stroke-width: 0px;
      }
    </style>
  </defs>
  <g id="Layer_1-2" data-name="Layer 1">
    <path class="cls-1" d="m56.69,0C25.38,0,0,25.38,0,56.69s25.38,56.69,56.69,56.69,56.69-25.38,56.69-56.69S88,0,56.69,0Zm0,85.04c-15.66,0-28.35-12.69-28.35-28.35s12.69-28.35,28.35-28.35,28.35,12.69,28.35,28.35-12.69,28.35-28.35,28.35Z"/>
    <path class="cls-1" d="m289.46,0h-56.69v113.39h56.69c31.31,0,56.69-25.38,56.69-56.69S320.78,0,289.46,0Zm0,85.04h0v-42.52l-28.35-14.17h28.35c15.63,0,28.35,12.72,28.35,28.35s-12.72,28.35-28.35,28.35Z"/>
    <path class="cls-1" d="m173.08,0h-56.69v113.39h56.69c31.31,0,56.69-25.38,56.69-56.69S204.39,0,173.08,0Zm28.35,56.69c0,2.43-.31,4.78-.88,7.03-3.13,12.26-14.24,21.32-27.47,21.32h-28.35V14.17c7.83,0,14.17,6.35,14.17,14.17v-14.17c7.83,0,14.17,6.35,14.17,14.17h0c7.83,0,14.17,6.35,14.17,14.17v14.17h14.17Z"/>
  </g>
</svg>