<?xml version="1.0" encoding="UTF-8"?>
<svg id="Layer_2" data-name="Layer 2" xmlns="http://www.w3.org/2000/svg" viewBox="0 0 262.07 48.12">
  <defs>
    <style>
      .cls-1 {
        fill: #faa61e;
        stroke-width: 0px;
      }
    </style>
  </defs>
  <g id="Layer_1-2" data-name="Layer 1">
    <path class="cls-1" d="m18.12,10.67V0c-4.41,0-7.99,3.71-8.02,8.11-.64-.06-1.28-.09-1.93-.09-.05,0-.1,0-.14,0h0V0C3.59,0,0,3.59,0,8.02v40.1h8.02s.1,0,.14,0c11.07,0,20.05-8.98,20.05-20.05,0-7.45-4.07-13.95-10.1-17.4Zm-9.95,29.43s-.09,0-.14,0l7.34-4.89v-14.26l-7.34-4.89s.09,0,.14,0c6.64,0,12.03,5.39,12.03,12.03s-5.39,12.03-12.03,12.03Zm5.46-12.03c0-.48.23-.87.51-.87s.51.39.51.87-.23.87-.51.87-.51-.39-.51-.87Z"/>
    <g>
      <path class="cls-1" d="m50.32,40.59c-6.19,0-10.97-4.12-10.97-11.62s4.78-11.62,10.97-11.62,10.94,4.09,10.94,11.62-4.81,11.62-10.94,11.62Zm0-18.06c-3.12,0-4.84,2.28-4.84,6.44s1.72,6.44,4.84,6.44,4.81-2.28,4.81-6.44-1.72-6.44-4.81-6.44Z"/>
      <path class="cls-1" d="m63.22,23.31h5.84v2.94h.16c.66-1.69,2.22-3.16,4.78-3.16,3.41,0,6.66,2.59,6.66,8.72s-3.06,8.69-6.72,8.69c-2.44,0-4.03-1.31-4.72-3h-.09v9.16h-5.91v-23.34Zm8.59,12.66c1.75,0,2.78-1.59,2.78-4.19s-1.03-4.12-2.78-4.12-2.81,1.56-2.81,4.12,1.03,4.19,2.81,4.19Z"/>
      <path class="cls-1" d="m81.63,31.84c0-5.25,3.34-8.75,8.59-8.75s8.38,3.25,8.38,8.69v1.41h-11.12v.22c0,1.75,1.12,3,3,3,1.28,0,2.31-.56,2.69-1.53h5.41c-.59,3.5-3.59,5.72-8.22,5.72-5.41,0-8.72-3.28-8.72-8.75Zm11.5-1.97c-.03-1.53-1.22-2.59-2.78-2.59s-2.83,1.08-2.88,2.59h5.66Z"/>
      <path class="cls-1" d="m106.04,40.28h-5.91v-16.97h5.59v3.19h.19c.75-2.12,2.69-3.41,5.19-3.41,3.59,0,5.94,2.62,5.91,6.38v10.81h-5.91v-9.59c.03-1.75-.91-2.78-2.5-2.78s-2.56,1.03-2.56,2.78v9.59Z"/>
      <path class="cls-1" d="m126,40.28v-22.62h8.53c6.97,0,11.31,4.25,11.31,11.31s-4.34,11.31-11.25,11.31h-8.59Zm8.38-5.06c3.5,0,5.47-1.47,5.47-6.25s-1.97-6.25-5.62-6.25h-2.28v12.5h2.44Z"/>
      <path class="cls-1" d="m147.16,31.84c0-5.22,3.28-8.75,8.75-8.75s8.72,3.53,8.72,8.75-3.25,8.75-8.72,8.75-8.75-3.53-8.75-8.75Zm11.44-.03c0-2.72-1-4.41-2.66-4.41s-2.75,1.69-2.75,4.41,1.03,4.41,2.75,4.41,2.66-1.72,2.66-4.41Z"/>
      <path class="cls-1" d="m166.03,41.44h5.72c.19,1.09,1.25,1.56,2.69,1.56,1.66,0,2.84-.69,2.84-2.75v-2.91h-.16c-.66,1.69-2.44,2.72-4.78,2.72-3.66,0-6.72-2.44-6.72-8.28s3.25-8.69,6.66-8.69c2.56,0,4.12,1.47,4.78,3.16h.16v-2.94h5.91v16.97c0,4.31-3.53,6.72-8.84,6.72s-8-2.31-8.25-5.56Zm11.28-9.66c0-2.56-1.06-4.12-2.84-4.12s-2.75,1.56-2.75,4.12,1,4.06,2.75,4.06,2.84-1.5,2.84-4.06Z"/>
      <path class="cls-1" d="m192.19,40.28v-22.62h8.53c6.97,0,11.31,4.25,11.31,11.31s-4.34,11.31-11.25,11.31h-8.59Zm8.38-5.06c3.5,0,5.47-1.47,5.47-6.25s-1.97-6.25-5.62-6.25h-2.28v12.5h2.44Z"/>
      <path class="cls-1" d="m213.35,31.84c0-5.22,3.28-8.75,8.75-8.75s8.72,3.53,8.72,8.75-3.25,8.75-8.72,8.75-8.75-3.53-8.75-8.75Zm11.44-.03c0-2.72-1-4.41-2.66-4.41s-2.75,1.69-2.75,4.41,1.03,4.41,2.75,4.41,2.66-1.72,2.66-4.41Z"/>
      <path class="cls-1" d="m231.72,31.84c0-5.22,3.28-8.75,8.75-8.75s8.72,3.53,8.72,8.75-3.25,8.75-8.72,8.75-8.75-3.53-8.75-8.75Zm11.44-.03c0-2.72-1-4.41-2.66-4.41s-2.75,1.69-2.75,4.41,1.03,4.41,2.75,4.41,2.66-1.72,2.66-4.41Z"/>
      <path class="cls-1" d="m250.75,23.31h5.72v3.19h.19c.62-2.34,2.03-3.41,3.88-3.41.53,0,1.06.06,1.53.19v5.09c-.59-.22-1.59-.31-2.22-.31-1.84,0-3.19,1.31-3.19,3.28v8.94h-5.91v-16.97Z"/>
    </g>
  </g>
</svg>