<?xml version="1.0" encoding="UTF-8"?>
<svg id="Layer_2" data-name="Layer 2" xmlns="http://www.w3.org/2000/svg" viewBox="0 0 346.16 166.42">
  <defs>
    <style>
      .cls-1 {
        fill: #fff;
        stroke-width: 0px;
      }
    </style>
  </defs>
  <g id="Layer_1-2" data-name="Layer 1">
    <path class="cls-1" d="m56.69,0C25.38,0,0,25.38,0,56.69s25.38,56.69,56.69,56.69,56.69-25.38,56.69-56.69S88,0,56.69,0Zm0,85.04c-15.66,0-28.35-12.69-28.35-28.35s12.69-28.35,28.35-28.35,28.35,12.69,28.35,28.35-12.69,28.35-28.35,28.35Z"/>
    <path class="cls-1" d="m289.46,0h-56.69v113.39h56.69c31.31,0,56.69-25.38,56.69-56.69S320.78,0,289.46,0Zm0,85.04h0v-42.52l-28.35-14.17h28.35c15.63,0,28.35,12.72,28.35,28.35s-12.72,28.35-28.35,28.35Z"/>
    <path class="cls-1" d="m173.08,0h-56.69v113.39h56.69c31.31,0,56.69-25.38,56.69-56.69S204.39,0,173.08,0Zm28.35,56.69c0,2.43-.31,4.78-.88,7.03-3.13,12.26-14.24,21.32-27.47,21.32h-28.35V14.17c7.83,0,14.17,6.35,14.17,14.17v-14.17c7.83,0,14.17,6.35,14.17,14.17h0c7.83,0,14.17,6.35,14.17,14.17v14.17h14.17Z"/>
    <g>
      <path class="cls-1" d="m29.39,151.72c0,7.87-4.72,14.64-13.9,14.64s-13.51-6.45-13.51-14.54,5.13-14.54,13.91-14.54c8.27,0,13.51,5.79,13.51,14.45Zm-21.11-.03c0,5.52,2.42,9.69,7.43,9.69,5.44,0,7.36-4.55,7.36-9.59,0-5.35-2.19-9.55-7.46-9.55s-7.33,3.94-7.33,9.45Z"/>
      <path class="cls-1" d="m34.74,137.68h11.69c6.01,0,10.08,3.38,10.08,8.75,0,6.14-4.65,8.96-10.23,8.96h-5.43v10.56h-6.12v-28.27Zm6.12,12.85h4.66c2.83,0,4.83-1.09,4.83-3.97s-2.11-4.01-4.7-4.01h-4.79v7.98Z"/>
      <path class="cls-1" d="m80.55,153.76h-13.52v7.18h14.91l-.72,5.01h-20.12v-28.27h20.04v5.01h-14.11v6.06h13.52v5.01Z"/>
      <path class="cls-1" d="m86.32,165.95v-28.27h7.58c3.53,6.35,10.06,17.79,11.36,20.87h.08c-.32-2.95-.31-7.86-.31-12.5v-8.38h5.54v28.27h-7.19c-3.04-5.52-10.27-18.67-11.67-21.94h-.08c.21,2.47.27,8.28.27,13.34v8.6h-5.58Z"/>
      <path class="cls-1" d="m127.2,137.68h11.21c8.23,0,13.61,5.42,13.61,13.78s-5.22,14.49-13.87,14.49h-10.95v-28.27Zm6.11,23.33h4.58c5.42,0,7.82-4.03,7.82-9.54,0-4.62-2.24-8.86-7.78-8.86h-4.62v18.39Z"/>
      <path class="cls-1" d="m183.4,151.72c0,7.87-4.72,14.64-13.9,14.64s-13.51-6.45-13.51-14.54,5.13-14.54,13.91-14.54c8.27,0,13.51,5.79,13.51,14.45Zm-21.11-.03c0,5.52,2.42,9.69,7.43,9.69,5.44,0,7.36-4.55,7.36-9.59,0-5.35-2.19-9.55-7.46-9.55s-7.33,3.94-7.33,9.45Z"/>
      <path class="cls-1" d="m213.34,165.95h-4.48c-.24-.87-.39-1.84-.47-2.79-1.57,2.11-4.33,3.26-8.26,3.26-8.21,0-12.79-6.2-12.79-14.25,0-8.5,4.94-14.9,13.85-14.9,7.27,0,11.55,4.1,12.24,8.93h-6.11c-.58-1.89-2.07-4.13-6.21-4.13-5.8,0-7.46,4.85-7.46,9.84s1.89,9.65,7.5,9.65c5.23,0,6.19-3.63,6.19-6.16v-.26h-6.2v-5.01h12.19v15.81Z"/>
      <path class="cls-1" d="m229.47,137.68h11.21c8.23,0,13.61,5.42,13.61,13.78s-5.22,14.49-13.87,14.49h-10.95v-28.27Zm6.11,23.33h4.58c5.42,0,7.82-4.03,7.82-9.54,0-4.62-2.24-8.86-7.78-8.86h-4.62v18.39Z"/>
      <path class="cls-1" d="m285.67,151.72c0,7.87-4.72,14.64-13.9,14.64s-13.51-6.45-13.51-14.54,5.13-14.54,13.91-14.54c8.27,0,13.51,5.79,13.51,14.45Zm-21.11-.03c0,5.52,2.42,9.69,7.43,9.69,5.44,0,7.36-4.55,7.36-9.59,0-5.35-2.19-9.55-7.46-9.55s-7.33,3.94-7.33,9.45Z"/>
      <path class="cls-1" d="m317.04,151.72c0,7.87-4.72,14.64-13.9,14.64s-13.51-6.45-13.51-14.54,5.13-14.54,13.91-14.54c8.27,0,13.51,5.79,13.51,14.45Zm-21.11-.03c0,5.52,2.42,9.69,7.43,9.69,5.44,0,7.36-4.55,7.36-9.59,0-5.35-2.19-9.55-7.46-9.55s-7.33,3.94-7.33,9.45Z"/>
      <path class="cls-1" d="m328.35,154.63v11.31h-5.97v-28.27h12.42c6.16,0,9.48,3.4,9.48,7.76,0,3.79-2.07,5.85-4.11,6.69,1.4.52,3.51,1.97,3.51,7.03v1.4c0,1.9.02,4.07.41,5.39h-5.79c-.5-1.23-.59-3.35-.59-6.35v-.41c0-3.09-.78-4.55-5.34-4.55h-4.02Zm0-4.87h5.12c3.35,0,4.64-1.27,4.64-3.64s-1.5-3.59-4.49-3.59h-5.27v7.22Z"/>
    </g>
  </g>
</svg>