<?xml version="1.0" encoding="UTF-8"?>
<svg id="Layer_2" data-name="Layer 2" xmlns="http://www.w3.org/2000/svg" viewBox="0 0 279.18 53.3">
  <defs>
    <style>
      .cls-1 {
        fill: #faa61e;
        stroke-width: 0px;
      }
    </style>
  </defs>
  <g id="Layer_1-2" data-name="Layer 1">
    <g>
      <path class="cls-1" d="m67.43,39.84c-6.19,0-10.97-4.12-10.97-11.62s4.78-11.62,10.97-11.62,10.94,4.09,10.94,11.62-4.81,11.62-10.94,11.62Zm0-18.06c-3.12,0-4.84,2.28-4.84,6.44s1.72,6.44,4.84,6.44,4.81-2.28,4.81-6.44-1.72-6.44-4.81-6.44Z"/>
      <path class="cls-1" d="m80.34,22.56h5.84v2.94h.16c.66-1.69,2.22-3.16,4.78-3.16,3.41,0,6.66,2.59,6.66,8.72s-3.06,8.69-6.72,8.69c-2.44,0-4.03-1.31-4.72-3h-.09v9.16h-5.91v-23.34Zm8.59,12.66c1.75,0,2.78-1.59,2.78-4.19s-1.03-4.12-2.78-4.12-2.81,1.56-2.81,4.12,1.03,4.19,2.81,4.19Z"/>
      <path class="cls-1" d="m98.75,31.09c0-5.25,3.34-8.75,8.59-8.75s8.38,3.25,8.38,8.69v1.41h-11.12v.22c0,1.75,1.12,3,3,3,1.28,0,2.31-.56,2.69-1.53h5.41c-.59,3.5-3.59,5.72-8.22,5.72-5.41,0-8.72-3.28-8.72-8.75Zm11.5-1.97c-.03-1.53-1.22-2.59-2.78-2.59s-2.83,1.08-2.88,2.59h5.66Z"/>
      <path class="cls-1" d="m123.15,39.53h-5.91v-16.97h5.59v3.19h.19c.75-2.12,2.69-3.41,5.19-3.41,3.59,0,5.94,2.62,5.91,6.38v10.81h-5.91v-9.59c.03-1.75-.91-2.78-2.5-2.78s-2.56,1.03-2.56,2.78v9.59Z"/>
      <path class="cls-1" d="m143.12,39.53v-22.62h8.53c6.97,0,11.31,4.25,11.31,11.31s-4.34,11.31-11.25,11.31h-8.59Zm8.38-5.06c3.5,0,5.47-1.47,5.47-6.25s-1.97-6.25-5.62-6.25h-2.28v12.5h2.44Z"/>
      <path class="cls-1" d="m164.28,31.09c0-5.22,3.28-8.75,8.75-8.75s8.72,3.53,8.72,8.75-3.25,8.75-8.72,8.75-8.75-3.53-8.75-8.75Zm11.44-.03c0-2.72-1-4.41-2.66-4.41s-2.75,1.69-2.75,4.41,1.03,4.41,2.75,4.41,2.66-1.72,2.66-4.41Z"/>
      <path class="cls-1" d="m183.15,40.68h5.72c.19,1.09,1.25,1.56,2.69,1.56,1.66,0,2.84-.69,2.84-2.75v-2.91h-.16c-.66,1.69-2.44,2.72-4.78,2.72-3.66,0-6.72-2.44-6.72-8.28s3.25-8.69,6.66-8.69c2.56,0,4.12,1.47,4.78,3.16h.16v-2.94h5.91v16.97c0,4.31-3.53,6.72-8.84,6.72s-8-2.31-8.25-5.56Zm11.28-9.66c0-2.56-1.06-4.12-2.84-4.12s-2.75,1.56-2.75,4.12,1,4.06,2.75,4.06,2.84-1.5,2.84-4.06Z"/>
      <path class="cls-1" d="m209.31,39.53v-22.62h8.53c6.97,0,11.31,4.25,11.31,11.31s-4.34,11.31-11.25,11.31h-8.59Zm8.38-5.06c3.5,0,5.47-1.47,5.47-6.25s-1.97-6.25-5.62-6.25h-2.28v12.5h2.44Z"/>
      <path class="cls-1" d="m230.47,31.09c0-5.22,3.28-8.75,8.75-8.75s8.72,3.53,8.72,8.75-3.25,8.75-8.72,8.75-8.75-3.53-8.75-8.75Zm11.44-.03c0-2.72-1-4.41-2.66-4.41s-2.75,1.69-2.75,4.41,1.03,4.41,2.75,4.41,2.66-1.72,2.66-4.41Z"/>
      <path class="cls-1" d="m248.84,31.09c0-5.22,3.28-8.75,8.75-8.75s8.72,3.53,8.72,8.75-3.25,8.75-8.72,8.75-8.75-3.53-8.75-8.75Zm11.44-.03c0-2.72-1-4.41-2.66-4.41s-2.75,1.69-2.75,4.41,1.03,4.41,2.75,4.41,2.66-1.72,2.66-4.41Z"/>
      <path class="cls-1" d="m267.87,22.56h5.72v3.19h.19c.62-2.34,2.03-3.41,3.88-3.41.53,0,1.06.06,1.53.19v5.09c-.59-.22-1.59-.31-2.22-.31-1.84,0-3.19,1.31-3.19,3.28v8.94h-5.91v-16.97Z"/>
    </g>
    <path class="cls-1" d="m22.84,7.61h0V0h0c-4.21,0-7.61,3.41-7.61,7.61h0s-7.61,0-7.61,0V0C3.41,0,0,3.41,0,7.61H0s0,0,0,0v45.69h22.84c12.62,0,22.84-10.23,22.84-22.84h0c0-12.62-10.23-22.84-22.84-22.84Zm0,38.07H7.61l11.42-7.61v-15.23l-11.42-7.61h15.23c8.4,0,15.23,6.83,15.23,15.23s-6.83,15.23-15.23,15.23Zm-5.7-14.82v-.81c0-.41.45-.65.79-.42.14.09.23.25.23.42v.81c0,.17-.08.33-.23.42-.34.23-.79-.02-.79-.42Z"/>
  </g>
</svg>