<?xml version="1.0" encoding="UTF-8"?>
<svg id="Layer_2" data-name="Layer 2" xmlns="http://www.w3.org/2000/svg" viewBox="0 0 127.72 127.72">
  <defs>
    <style>
      .cls-1 {
        fill: #ee333e;
      }

      .cls-1, .cls-2, .cls-3, .cls-4 {
        stroke-width: 0px;
      }

      .cls-5 {
        stroke-dasharray: 0 0 6.92 19.78;
      }

      .cls-5, .cls-6, .cls-7 {
        stroke: #ee333e;
      }

      .cls-5, .cls-6, .cls-7, .cls-8 {
        fill: none;
        stroke-linecap: round;
        stroke-linejoin: round;
        stroke-width: 3px;
      }

      .cls-2 {
        fill: #fff;
      }

      .cls-3 {
        fill: #4068b2;
      }

      .cls-7 {
        stroke-dasharray: 0 0 6.44 18.39;
      }

      .cls-4 {
        fill: #fbac18;
      }

      .cls-8 {
        stroke: #fff;
      }
    </style>
  </defs>
  <g id="Layer_1-2" data-name="Layer 1">
    <g>
      <g>
        <polyline class="cls-6" points="5 126.22 1.5 126.22 1.5 122.72"/>
        <line class="cls-7" x1="1.5" y1="104.33" x2="1.5" y2="14.2"/>
        <polyline class="cls-6" points="1.5 5 1.5 1.5 5 1.5"/>
        <path class="cls-5" d="m24.78,1.5h39.08c34.39,0,62.36,27.97,62.36,62.36s-27.97,62.36-62.36,62.36H14.89"/>
      </g>
      <path class="cls-1" d="m63.86,7.17H7.17v113.39h56.69c31.31,0,56.69-25.38,56.69-56.69S95.17,7.17,63.86,7.17Z"/>
      <path class="cls-4" d="m85.12,63.86h-7.09v-14.17c0-7.83-6.35-14.17-14.17-14.17h0s0,0,0,0c0-7.83-6.35-14.17-14.17-14.17v14.17c0-7.83-6.35-14.17-14.17-14.17h0v14.17h0s-28.35,14.17-28.35,14.17v56.69l28.35-14.17h28.35c13.23,0,24.34-9.06,27.47-21.32-3.5-.43-6.21-3.41-6.21-7.03Z"/>
      <path class="cls-2" d="m91.33,70.89c.57-2.25.88-4.6.88-7.03h0s-7.09,0-7.09,0c0,3.62,2.71,6.59,6.21,7.03Z"/>
      <circle class="cls-2" cx="50.47" cy="54.25" r="6.69"/>
      <circle class="cls-2" cx="66.91" cy="54.25" r="6.69"/>
      <circle class="cls-3" cx="69.05" cy="54.25" r="4.54"/>
      <circle class="cls-3" cx="52.61" cy="54.25" r="4.54"/>
      <rect class="cls-1" x="56.43" y="76.87" width="38.26" height="7.17" rx="3.59" ry="3.59"/>
      <polyline class="cls-8" points="81.28 76.87 92.83 73.45 92.83 76.07 112.58 70.5"/>
      <polyline class="cls-8" points="73.32 82.95 83.42 88.27 80 90.59 96.93 99.92"/>
      <line class="cls-8" x1="73.32" y1="95.85" x2="80.89" y2="107.59"/>
      <line class="cls-8" x1="102.57" y1="65.54" x2="115.77" y2="60.94"/>
      <rect class="cls-4" x="42.59" y="46.02" width="32.97" height="6.43"/>
    </g>
  </g>
</svg>